<svg width="1106" height="783" viewBox="0 0 1106 783" fill="none" xmlns="http://www.w3.org/2000/svg">
<g clip-path="url(#clip0_24_6616)">
<path opacity="0.1" d="M367.379 782.3C421.194 782.3 464.819 775.293 464.819 766.65C464.819 758.007 421.194 751 367.379 751C313.565 751 269.939 758.007 269.939 766.65C269.939 775.293 313.565 782.3 367.379 782.3Z" fill="#337ACC"/>
<path opacity="0.1" d="M897.051 782.74C964.203 782.74 1018.64 775.734 1018.64 767.09C1018.64 758.447 964.203 751.44 897.051 751.44C829.899 751.44 775.461 758.447 775.461 767.09C775.461 775.734 829.899 782.74 897.051 782.74Z" fill="#337ACC"/>
<path opacity="0.1" d="M13.8398 338.2H115.33V476.53H21.2698C21.0198 477.95 20.7798 479.38 20.5198 480.81H115.33V592.37C115.16 592.32 115.01 592.26 114.85 592.2C112.17 591.14 109.51 590.02 106.85 588.82L105.15 588.05C102.483 586.79 99.8164 585.457 97.1498 584.05C96.2198 583.56 95.2898 583.05 94.3698 582.53C79.5656 574.237 66.1168 563.729 54.4898 551.37C54.1498 551.04 53.8298 550.69 53.4898 550.37C51.8698 548.61 50.2798 546.83 48.7398 545.01L47.0398 543.01C45.2198 540.78 43.4598 538.49 41.7498 536.17C41.4998 535.83 41.2598 535.49 40.9998 535.17C34.0452 525.527 28.2708 515.086 23.7998 504.07C23.6598 503.74 23.5398 503.38 23.4098 503.07C22.0364 499.537 20.8198 495.97 19.7598 492.37C19.2998 490.86 18.8598 489.37 18.4798 487.8C18.3398 487.34 18.2198 486.89 18.1098 486.44C12.4298 464.27 11.7598 441.24 11.7598 418.37C11.7598 415.7 11.7598 413.02 11.7598 410.37C11.7598 401.12 11.8698 391.81 12.0298 382.51C12.0298 380.1 12.1298 377.7 12.1798 375.28C12.3198 369.14 12.5198 363 12.7798 356.86C12.8398 355.15 12.9198 353.45 13.0098 351.75C13.0098 350.77 13.0598 349.79 13.1598 348.81C13.3998 345.25 13.5998 341.72 13.8398 338.2Z" fill="#337ACC"/>
<path opacity="0.1" d="M115.33 184.18H59.6602C68.7096 170.016 78.5972 156.405 89.2701 143.42C97.5401 133.26 106.27 123.36 115.33 113.82V184.18Z" fill="#337ACC"/>
<path opacity="0.1" d="M115.33 188.46V333.92H14.1602C14.1602 333.5 14.2302 333.07 14.2602 332.65C14.3502 331.5 14.4402 330.35 14.5402 329.21C14.6502 327.87 14.7702 326.52 14.9002 325.21C15.0302 323.9 15.1702 322.3 15.3202 320.85C15.4702 319.4 15.6102 317.93 15.7802 316.48C15.9502 315.03 16.1002 313.58 16.2802 312.14C16.4602 310.7 16.6202 309.24 16.8102 307.8C16.9602 306.6 17.1202 305.41 17.2802 304.21C17.5102 302.52 17.7502 300.82 18.0102 299.14C18.0102 298.89 18.0802 298.63 18.1202 298.39C19.9453 286.092 22.4323 273.901 25.5702 261.87C28.8547 249.25 33.0491 236.884 38.1202 224.87C43.5098 212.302 49.8203 200.149 57.0002 188.51L115.33 188.46Z" fill="#337ACC"/>
<path opacity="0.1" d="M139.561 338.19V476.529H356.331V338.19H139.561ZM139.561 480.799V599.599C140.801 599.859 142.031 600.11 143.251 600.32C144.911 600.64 146.561 600.93 148.251 601.18C148.571 601.23 148.901 601.28 149.251 601.31C149.911 601.42 150.591 601.509 151.251 601.599C152.921 601.829 154.581 602.019 156.251 602.169C157.041 602.249 157.841 602.32 158.641 602.38L160.571 602.529C161.621 602.609 162.661 602.67 163.691 602.7C164.331 602.7 164.971 602.759 165.631 602.779C166.131 602.779 166.631 602.779 167.151 602.779C167.671 602.779 168.411 602.779 169.041 602.779C169.901 602.779 170.761 602.779 171.611 602.779H172.761C173.621 602.779 174.481 602.78 175.331 602.7H175.391C175.981 602.7 176.581 602.7 177.181 602.62C177.347 602.629 177.514 602.629 177.681 602.62C178.181 602.62 178.681 602.619 179.161 602.549H179.511L182.861 602.289C183.961 602.189 185.071 602.06 186.191 601.94L188.471 601.669C197.746 600.37 206.919 598.418 215.921 595.83C236.141 590.19 255.921 582.3 276.131 576.52C302.261 569.07 331.131 565.41 356.381 574.52V480.799H139.561ZM356.331 184.18V0.0095179C332.598 -0.247606 308.93 2.5282 285.901 8.26952C231.011 22.0595 181.761 51.9695 139.561 90.1695V184.17H150.441V188.44H139.561V333.919H356.331V188.45H195.111V184.18H356.331ZM634.761 121.97C621.181 121.49 607.681 117.19 595.471 110.55C572.121 97.8495 553.471 78.2395 532.631 61.6895C489.331 27.2195 435.631 6.41952 380.541 1.25952V184.18H689.991L690.761 183.37L634.761 121.97ZM662.951 116.97L692.841 149.77V108.37C682.831 109.61 674.061 112.56 662.991 116.93L662.951 116.97ZM692.841 629.099V480.799H629.151C628.981 480.169 628.811 479.53 628.611 478.89C628.801 479.53 628.961 480.169 629.141 480.799H380.581V588.049C382.941 589.799 385.271 591.64 387.581 593.51C390.071 595.51 392.531 597.62 395.001 599.69L397.491 601.75C398.681 602.75 399.881 603.75 401.091 604.69C403.491 606.636 405.914 608.556 408.361 610.45C409.571 611.45 410.811 612.349 412.041 613.289C431.568 628.219 452.167 641.692 473.671 653.599C478.491 656.266 483.354 658.869 488.261 661.409C491.531 663.079 494.821 664.739 498.121 666.349C503.081 668.769 508.081 671.103 513.121 673.349C559.587 694.208 608.722 708.521 659.121 715.88C670.314 717.533 681.551 718.833 692.831 719.779V629.089H693.831L692.841 629.099ZM380.581 188.45V333.919H692.881V188.45H380.581ZM380.581 338.19V476.529H692.881V338.19H380.581ZM717.121 108.19V154.37L755.271 112.51C742.631 110.47 729.914 109.013 717.121 108.14V108.19ZM717.121 338.24V476.529H1020.87V338.19L717.121 338.24ZM1019.76 640.08L1020.83 480.799H717.121V721.37C736.686 722.191 756.281 721.958 775.821 720.669V720.669H776.161C785.494 720.083 794.784 719.229 804.031 718.109H804.241C853.571 712.368 901.807 699.497 947.441 679.9M1079.44 360.97C1078.3 358.28 1077.11 355.61 1075.9 352.97C1073.64 347.97 1071.25 343.11 1068.79 338.25H1045.09V476.529H1105.01C1104.98 437.369 1095.07 397.369 1079.47 360.919L1079.44 360.97ZM1045.09 480.849V617.849C1061.97 601.669 1076.23 583.16 1086.5 562C1098.85 536.52 1104.5 508.93 1104.96 480.83L1045.09 480.849ZM1045.09 297.93V333.93H1066.57C1060.07 321.537 1052.91 309.503 1045.12 297.88L1045.09 297.93ZM839.091 135.33C837.511 134.73 835.931 134.12 834.341 133.53C817.571 127.337 800.435 122.187 783.031 118.11L724.651 182.18L723.531 183.37L724.281 184.19H932.061C903.123 164.27 871.925 147.852 839.121 135.28L839.091 135.33ZM938.151 188.5H721.381L717.121 192.4V333.919H754.461H754.521H1020.91V265.37C996.813 236.225 968.999 210.365 938.181 188.45L938.151 188.5Z" fill="#337ACC"/>
<path opacity="0.1" d="M115.33 261.83V333.92H14.1602C14.1602 333.5 14.2302 333.07 14.2602 332.65C14.3502 331.5 14.4402 330.35 14.5402 329.21C14.6502 327.87 14.7702 326.52 14.9002 325.21C15.0302 323.9 15.1702 322.3 15.3202 320.85C15.4702 319.4 15.6102 317.93 15.7802 316.48C15.9502 315.03 16.1002 313.58 16.2802 312.14C16.4602 310.7 16.6202 309.24 16.8102 307.8C16.9602 306.6 17.1202 305.41 17.2802 304.21C17.5102 302.52 17.7502 300.82 18.0102 299.14C18.0102 298.89 18.0802 298.63 18.1202 298.39C19.9453 286.092 22.4323 273.901 25.5702 261.87L115.33 261.83Z" fill="#337ACC"/>
<path opacity="0.1" d="M13.8398 338.2H115.33V476.53H21.2698C21.0198 477.95 20.7798 479.38 20.5198 480.81H115.33V592.37C115.16 592.32 115.01 592.26 114.85 592.2C112.17 591.14 109.51 590.02 106.85 588.82L105.15 588.05C102.483 586.79 99.8164 585.457 97.1498 584.05C96.2198 583.56 95.2898 583.05 94.3698 582.53C79.5656 574.237 66.1168 563.729 54.4898 551.37C54.1498 551.04 53.8298 550.69 53.4898 550.37C51.8698 548.61 50.2798 546.83 48.7398 545.01L47.0398 543.01C45.2198 540.78 43.4598 538.49 41.7498 536.17C41.4998 535.83 41.2598 535.49 40.9998 535.17C34.0452 525.527 28.2708 515.086 23.7998 504.07C23.6598 503.74 23.5398 503.38 23.4098 503.07C22.0364 499.537 20.8198 495.97 19.7598 492.37C19.2998 490.86 18.8598 489.37 18.4798 487.8C18.3398 487.34 18.2198 486.89 18.1098 486.44C12.4298 464.27 11.7598 441.24 11.7598 418.37C11.7598 415.7 11.7598 413.02 11.7598 410.37C11.7598 401.12 11.8698 391.81 12.0298 382.51C12.0298 380.1 12.1298 377.7 12.1798 375.28C12.3198 369.14 12.5198 363 12.7798 356.86C12.8398 355.15 12.9198 353.45 13.0098 351.75C13.0098 350.77 13.0598 349.79 13.1598 348.81C13.3998 345.25 13.5998 341.72 13.8398 338.2Z" fill="#337ACC"/>
<path opacity="0.1" d="M215.871 209.28V333.92H139.561V209.28H150.441V167.08H195.101V209.28H215.871Z" fill="#337ACC"/>
<path opacity="0.1" d="M215.87 338.19H139.57V476.52H215.87V338.19Z" fill="#337ACC"/>
<path opacity="0.1" d="M139.561 480.81H215.871V595.81C206.869 598.396 197.696 600.344 188.421 601.64L186.141 601.92C185.021 602.05 183.911 602.16 182.811 602.27C181.711 602.38 180.571 602.46 179.461 602.53H179.111C178.631 602.53 178.111 602.59 177.641 602.6H177.131C176.531 602.6 175.931 602.66 175.331 602.68C174.481 602.73 173.631 602.74 172.761 602.75C172.391 602.75 172.041 602.75 171.671 602.75C170.811 602.75 169.961 602.75 169.101 602.75H167.211C166.701 602.75 166.211 602.75 165.681 602.75L163.751 602.68C162.751 602.68 161.671 602.57 160.631 602.5L158.711 602.36L156.321 602.14C154.641 601.99 152.971 601.8 151.321 601.57L149.321 601.29L148.321 601.15C146.651 600.89 145.001 600.61 143.321 600.29C142.091 600.08 140.871 599.82 139.631 599.57L139.561 480.81Z" fill="#337ACC"/>
<path opacity="0.1" d="M692.881 194.56H629.961V333.91H692.881V194.56Z" fill="#337ACC"/>
<path opacity="0.1" d="M692.89 338.19V476.53H380.58V416.86H546.93V452.06H629.96V338.19H692.89Z" fill="#337ACC"/>
<path opacity="0.1" d="M693.88 629.13H692.88V719.88C681.613 718.927 670.38 717.63 659.18 715.99C608.756 708.608 559.601 694.265 513.12 673.37C499.7 667.33 486.553 660.737 473.68 653.59C452.176 641.677 431.575 628.204 412.04 613.28C407.133 609.52 402.29 605.674 397.51 601.74C394.2 599.01 390.91 596.21 387.58 593.49C385.27 591.62 382.94 589.78 380.58 588.02V480.81H629.13C628.96 480.17 628.79 479.53 628.61 478.9C628.8 479.53 628.98 480.17 629.15 480.81H692.88V629.07C693.22 629.08 693.55 629.11 693.88 629.13Z" fill="#337ACC"/>
<path opacity="0.1" d="M856.98 184.18H815.98V171.44H834.36V133.49C835.954 134.07 837.54 134.667 839.12 135.28V171.44H856.98V184.18Z" fill="#337ACC"/>
<path opacity="0.1" d="M955.759 333.92H754.479C754.479 333.92 754.479 333.92 754.549 333.97L754.459 333.92H717.119V194.57H727.699V297.57H776.049V236.57H815.989V188.46H856.989V236.61H896.929V297.61H955.759V333.92Z" fill="#337ACC"/>
<path opacity="0.1" d="M717.119 338.19V476.53H955.759V338.19H717.119ZM1020.54 639.37L1020.87 529.87H955.759V480.87H717.119V721.37C736.684 722.192 756.279 721.959 775.819 720.67V720.67H776.159C785.493 720.084 794.783 719.23 804.029 718.11H804.239C853.57 712.369 901.806 699.498 947.439 679.9" fill="#337ACC"/>
<path opacity="0.1" d="M1049.33 480.81H1105C1104.51 508.9 1098.87 536.49 1086.53 561.97C1076.26 583.14 1061.99 601.65 1045.13 617.82V529.82H1049.33V480.81Z" fill="#337ACC"/>
<path opacity="0.1" d="M1105.03 476.53H1049.33V360.92H1079.47C1095.07 397.37 1104.98 437.37 1105.03 476.53Z" fill="#337ACC"/>
<path opacity="0.1" d="M692.89 233.3H659.18V276.99H692.89V233.3Z" fill="#337ACC"/>
<path opacity="0.1" d="M692.89 323.86H659.18V333.92H692.89V323.86Z" fill="#337ACC"/>
<path opacity="0.1" d="M692.89 338.19H659.18V367.54H692.89V338.19Z" fill="#337ACC"/>
<path opacity="0.1" d="M692.89 414.42H659.18V458.11H692.89V414.42Z" fill="#337ACC"/>
<path opacity="0.1" d="M692.89 504.98H659.18V548.67H692.89V504.98Z" fill="#337ACC"/>
<path opacity="0.1" d="M692.88 629.07C693.22 629.07 693.55 629.07 693.88 629.13H692.88V639.28H659.18V595.54H692.88V629.07Z" fill="#337ACC"/>
<path opacity="0.1" d="M692.88 686.08V719.83C681.613 718.877 670.38 717.58 659.18 715.94V686.08H692.88Z" fill="#337ACC"/>
<path opacity="0.1" d="M525.05 473.32H380.58V476.53H525.05V473.32Z" fill="#337ACC"/>
<path opacity="0.1" d="M525.05 480.8H380.58V493.1H525.05V480.8Z" fill="#337ACC"/>
<path opacity="0.1" d="M525.05 533.42H380.58V553.2H525.05V533.42Z" fill="#337ACC"/>
<path opacity="0.1" d="M525.04 593.52V613.299H412.04C407.134 609.553 402.287 605.706 397.5 601.76C394.19 599.03 390.91 596.23 387.57 593.52H525.04Z" fill="#337ACC"/>
<path opacity="0.1" d="M525.04 653.61V673.37H513.11C499.703 667.323 486.56 660.727 473.68 653.58L525.04 653.61Z" fill="#337ACC"/>
<path opacity="0.1" d="M804.27 351.6H775.83V380.04H804.27V351.6Z" fill="#337ACC"/>
<path opacity="0.1" d="M188.491 219.09H160.051V247.53H188.491V219.09Z" fill="#337ACC"/>
<path opacity="0.1" d="M188.491 285.15H160.051V313.59H188.491V285.15Z" fill="#337ACC"/>
<path opacity="0.1" d="M188.491 351.21H160.051V379.65H188.491V351.21Z" fill="#337ACC"/>
<path opacity="0.1" d="M188.491 417.26H160.051V445.7H188.491V417.26Z" fill="#337ACC"/>
<path opacity="0.1" d="M188.491 483.32H160.051V511.76H188.491V483.32Z" fill="#337ACC"/>
<path opacity="0.1" d="M188.491 549.38H160.051V577.82H188.491V549.38Z" fill="#337ACC"/>
<path opacity="0.1" d="M912.84 351.6H884.4V380.04H912.84V351.6Z" fill="#337ACC"/>
<path opacity="0.1" d="M804.27 421.75H775.83V450.19H804.27V421.75Z" fill="#337ACC"/>
<path opacity="0.1" d="M912.84 421.75H884.4V450.19H912.84V421.75Z" fill="#337ACC"/>
<path opacity="0.1" d="M804.27 491.89H775.83V520.33H804.27V491.89Z" fill="#337ACC"/>
<path opacity="0.1" d="M912.84 491.89H884.4V520.33H912.84V491.89Z" fill="#337ACC"/>
<path opacity="0.1" d="M804.27 562.04H775.83V590.48H804.27V562.04Z" fill="#337ACC"/>
<path opacity="0.1" d="M912.84 562.04H884.4V590.48H912.84V562.04Z" fill="#337ACC"/>
<path opacity="0.1" d="M804.27 632.19H775.83V660.63H804.27V632.19Z" fill="#337ACC"/>
<path opacity="0.1" d="M912.84 632.19H884.4V660.63H912.84V632.19Z" fill="#337ACC"/>
<path opacity="0.1" d="M775.83 720.67V702.33H804.26V718.06L775.83 720.67Z" fill="#337ACC"/>
<path opacity="0.1" d="M18 298.37V314.64H115.33V298.37H18ZM27.7 313.62H19.76V299.37H27.76L27.7 313.62ZM37.39 313.62H29.39V299.37H37.39V313.62ZM47.06 313.62H39.06V299.37H47.06V313.62ZM56.75 313.62H48.76V299.37H56.76L56.75 313.62ZM66.43 313.62H58.43V299.37H66.43V313.62ZM76.12 313.62H68.12V299.37H76.12V313.62ZM85.81 313.62H77.81V299.37H85.81V313.62ZM95.49 313.62H87.49V299.37H95.49V313.62ZM105.17 313.62H97.17V299.37H105.17V313.62ZM114.85 313.62H106.85V299.37H114.85V313.62Z" fill="#337ACC"/>
<path opacity="0.1" d="M18 345.71V361.98H115.33V345.71H18ZM27.7 360.95H19.76V346.74H27.76L27.7 360.95ZM37.39 360.95H29.39V346.74H37.39V360.95ZM47.06 360.95H39.06V346.74H47.06V360.95ZM56.75 360.95H48.76V346.74H56.76L56.75 360.95ZM66.43 360.95H58.43V346.74H66.43V360.95ZM76.12 360.95H68.12V346.74H76.12V360.95ZM85.81 360.95H77.81V346.74H85.81V360.95ZM95.49 360.95H87.49V346.74H95.49V360.95ZM105.17 360.95H97.17V346.74H105.17V360.95ZM114.85 360.95H106.85V346.74H114.85V360.95Z" fill="#337ACC"/>
<path opacity="0.1" d="M18 393.07V409.37H115.33V393.07H18ZM27.7 408.31H19.76V394.09H27.76L27.7 408.31ZM37.39 408.31H29.39V394.09H37.39V408.31ZM47.06 408.31H39.06V394.09H47.06V408.31ZM56.75 408.31H48.76V394.09H56.76L56.75 408.31ZM66.43 408.31H58.43V394.09H66.43V408.31ZM76.12 408.31H68.12V394.09H76.12V408.31ZM85.81 408.31H77.81V394.09H85.81V408.31ZM95.49 408.31H87.49V394.09H95.49V408.31ZM105.17 408.31H97.17V394.09H105.17V408.31ZM114.85 408.31H106.85V394.09H114.85V408.31Z" fill="#337ACC"/>
<path opacity="0.1" d="M18 440.43V456.68H115.33V440.43H18ZM27.7 455.67H19.76V441.44H27.76L27.7 455.67ZM37.39 455.67H29.39V441.44H37.39V455.67ZM47.06 455.67H39.06V441.44H47.06V455.67ZM56.75 455.67H48.76V441.44H56.76L56.75 455.67ZM66.43 455.67H58.43V441.44H66.43V455.67ZM76.12 455.67H68.12V441.44H76.12V455.67ZM85.81 455.67H77.81V441.44H85.81V455.67ZM95.49 455.67H87.49V441.44H95.49V455.67ZM105.17 455.67H97.17V441.44H105.17V455.67ZM114.85 455.67H106.85V441.44H114.85V455.67Z" fill="#337ACC"/>
<path opacity="0.1" d="M18.4199 487.78C18.8099 489.31 19.2499 490.84 19.7099 492.35V488.8H27.7099V503.02H23.4299C23.5599 503.35 23.6899 503.71 23.8199 504.02H115.33V487.78H18.4199ZM37.4199 503.02H29.4199V488.8H37.4199V503.02ZM47.0899 503.02H39.0899V488.8H47.0899V503.02ZM56.7799 503.02H48.7599V488.8H56.7599L56.7799 503.02ZM66.4599 503.02H58.4599V488.8H66.4599V503.02ZM76.1499 503.02H68.1499V488.8H76.1499V503.02ZM85.8399 503.02H77.8399V488.8H85.8399V503.02ZM95.5199 503.02H87.5199V488.8H95.5199V503.02ZM105.2 503.02H97.1999V488.8H105.2V503.02ZM114.88 503.02H106.88V488.8H114.88V503.02Z" fill="#337ACC"/>
<path opacity="0.1" d="M41.0195 535.14C41.2695 535.46 41.5095 535.82 41.7695 536.14H47.0595V542.97C47.6295 543.65 48.1895 544.33 48.7695 544.97V536.1H56.7695V550.37H53.5295C53.8495 550.7 54.1595 551.05 54.5295 551.37H115.36V535.14H41.0195ZM66.4295 550.37H58.4295V536.16H66.4295V550.37ZM76.1195 550.37H68.1195V536.16H76.1195V550.37ZM85.8095 550.37H77.8095V536.16H85.8095V550.37ZM95.4895 550.37H87.4895V536.16H95.4895V550.37ZM105.17 550.37H97.1695V536.16H105.17V550.37ZM114.85 550.37H106.85V536.16H114.85V550.37Z" fill="#337ACC"/>
<path opacity="0.1" d="M94.4102 582.49C95.3202 583.01 96.2502 583.49 97.1902 584.01V583.51H105.19V588.01L106.89 588.8V583.51H114.89V592.16C115.044 592.237 115.204 592.297 115.37 592.34V582.49H94.4102Z" fill="#337ACC"/>
<path opacity="0.1" d="M754.48 333.92H754.541H754.48ZM692.88 629.06H693.88H692.88ZM628.61 478.89C628.8 479.53 628.96 480.17 629.14 480.8C628.98 480.17 628.81 479.53 628.61 478.89ZM754.48 333.89H754.541H754.48ZM150.48 184.15V188.42H195.15V184.15H150.48ZM692.88 629.06H693.88H692.88ZM628.61 478.89C628.8 479.53 628.96 480.17 629.14 480.8C628.98 480.17 628.81 479.53 628.61 478.89ZM754.48 333.89H754.541H754.48ZM692.88 629.03H693.88H692.88ZM628.61 478.89C628.8 479.53 628.96 480.17 629.14 480.8C628.98 480.17 628.81 479.53 628.61 478.89Z" fill="#337ACC"/>
<path d="M461.601 379.67C461.601 379.67 457.661 379.12 457.661 373.38C457.661 367.64 454.841 356.92 454.841 356.92C454.841 356.87 452.401 338.25 449.031 335.29C445.661 332.33 441.331 314.95 441.331 314.95C441.331 314.95 440.591 305.52 439.081 303.49C437.571 301.46 435.531 296.49 432.521 289.4C429.511 282.31 416.961 277.4 416.961 277.4C416.961 277.4 394.271 264.24 387.841 259.95C387.256 259.598 386.71 259.186 386.211 258.72C385.091 257.25 380.211 257.22 380.211 257.22C379.701 254 379.211 250.3 379.051 246.95C379.051 246.59 379.051 246.23 379.001 245.87C386.171 241.632 391.571 234.95 394.211 227.05C394.331 226.67 394.431 226.27 394.541 225.89C394.97 225.749 395.366 225.519 395.702 225.216C396.037 224.913 396.306 224.543 396.491 224.13C397.071 222.84 397.081 221.33 397.801 220.13C398.641 218.71 400.241 217.95 401.501 216.88C404.681 214.18 405.501 209.63 405.351 205.49C405.251 202.14 404.711 198.76 404.921 195.43L404.981 194.59C405.041 194.09 405.111 193.59 405.201 193.11C405.691 190.63 406.761 188.29 407.361 185.83C407.961 183.37 408.021 180.6 406.621 178.48C404.571 175.37 400.301 174.75 396.551 174.43C392.301 174.07 388.501 174.54 385.781 171.01C384.508 169.165 383.076 167.435 381.501 165.84C380.941 165.32 375.501 162 375.501 161.78C370.191 159.321 364.173 158.86 358.551 160.48C355.731 161.3 353.071 162.64 350.211 163.31C344.041 164.77 336.941 163.19 331.701 166.72C328.781 168.72 327.031 171.9 325.391 175C324.058 177.554 322.704 180.104 321.331 182.65C319.121 186.84 316.871 191.1 315.941 195.74C315.745 196.75 315.625 197.773 315.581 198.8V198.85C315.581 199.22 315.581 199.59 315.581 199.96V200.43C315.581 200.78 315.581 201.12 315.641 201.43C315.701 201.74 315.691 201.84 315.721 202.05C315.751 202.26 315.801 202.73 315.861 203.05C315.921 203.37 316.041 203.93 316.161 204.37C316.211 204.56 316.281 204.74 316.341 204.92C316.441 205.26 316.561 205.59 316.691 205.92C316.761 206.09 316.831 206.27 316.911 206.44C317.061 206.79 317.241 207.13 317.421 207.44C317.501 207.58 317.561 207.71 317.641 207.84C317.92 208.305 318.227 208.753 318.561 209.18C320.701 211.85 323.851 213.55 326.181 216.05C326.181 216.15 326.181 216.25 326.181 216.34C326.181 216.62 326.181 216.89 326.181 217.17C326.304 222.746 327.788 228.207 330.504 233.078C333.219 237.949 337.084 242.083 341.761 245.12C341.761 245.5 341.811 245.89 341.831 246.27C342.026 249.239 341.989 252.218 341.721 255.18C341.314 254.701 340.804 254.319 340.229 254.063C339.655 253.806 339.03 253.683 338.401 253.7C337.971 253.679 337.541 253.716 337.121 253.81L337.031 253.74V253.83C334.831 254.37 332.121 256.66 329.531 263.17C329.531 263.17 321.651 272.05 315.651 271.68C309.651 271.31 294.461 280.92 294.461 280.92C294.461 280.92 279.641 290.54 276.461 300.34C274.683 305.898 272.552 311.335 270.081 316.62L251.761 354.37L248.381 384.32C248.381 384.32 250.251 397.64 249.881 399.67C249.511 401.7 257.571 420.01 257.571 420.01C257.571 420.01 284.201 466.8 295.081 469.2L295.861 468.65C296.326 468.894 296.82 469.078 297.331 469.2L299.571 467.62C299.705 469.381 299.648 471.152 299.401 472.9C297.901 477.52 299.961 507.67 302.581 513.58C305.201 519.49 304.271 596.98 304.271 596.98L303.901 603.82C303.901 603.82 303.901 604.04 303.991 604.42L303.901 606.04L304.171 606.18C304.451 608.35 304.36 610.551 303.901 612.69C302.961 615.69 302.581 624.17 302.581 624.17C302.581 624.17 295.091 672.05 298.641 681.67C302.191 691.29 305.211 701.83 305.211 701.83C305.211 701.83 308.961 713.83 305.391 715.88C301.821 717.93 291.671 721.37 293.761 726.37C295.661 730.99 302.871 743.37 303.941 745.18L303.851 746.13L302.381 762.06C302.619 764.164 303.189 766.216 304.071 768.14C305.681 771.61 308.811 775.21 314.761 774.82C315.761 774.75 316.921 774.63 318.041 774.48C328.931 773.02 342.341 768.16 342.341 768.16C341.645 767.718 341.006 767.191 340.441 766.59V766.59C339.906 766.072 339.481 765.45 339.194 764.762C338.907 764.075 338.763 763.336 338.771 762.59C338.931 759.69 333.501 745.87 332.151 742.47C331.941 741.98 331.831 741.7 331.831 741.7C331.831 741.7 344.211 728.76 342.151 717.29C342.151 717.29 328.451 709.29 332.961 704.9C337.471 700.51 345.531 687.9 345.531 687.9C345.531 687.9 345.901 640.75 345.531 633.71C345.145 628.824 345.377 623.909 346.221 619.08C346.371 618.35 346.551 617.64 346.741 616.94C352.978 617.871 359.275 618.349 365.581 618.37C367.881 618.37 370.221 618.37 372.581 618.23C372.581 618.897 372.611 619.617 372.671 620.39C373.191 632.07 374.161 652.55 374.951 660.16C376.071 671.07 382.261 700.47 382.261 700.47C382.261 700.47 370.451 708.05 384.321 726.73C384.321 726.73 384.321 733.5 383.401 734.48C382.419 737.684 381.627 740.943 381.031 744.24C380.451 747.76 380.211 751.32 381.151 753.17C383.401 757.59 396.901 757.23 396.901 757.23L397.231 757.17C399.78 756.907 402.355 757.152 404.808 757.892C407.261 758.632 409.543 759.852 411.521 761.48C416.651 765.6 436.121 763.79 446.661 762.48C450.791 761.96 453.551 761.48 453.551 761.48C453.685 761.013 453.732 760.525 453.691 760.04C453.581 757.45 451.551 751.77 437.791 746.7C437.791 746.7 424.851 738 425.031 730.42H424.761H423.261C424.351 730.36 425.051 730.42 425.051 730.42C425.051 730.42 419.981 711.92 422.051 710.42C424.121 708.92 417.921 688.42 417.921 688.42C417.921 688.42 414.371 654.02 414.181 651.61C414.189 649.542 414.502 647.487 415.111 645.51L414.181 626.65C414.181 626.65 414.001 620.38 414.181 618.34C414.151 616.57 414.007 614.803 413.751 613.05C413.661 612.35 413.571 611.62 413.471 610.9C418.321 609.67 421.471 608.53 421.471 608.53L420.911 542.88C425.031 534.88 425.791 517.33 425.771 504.88C425.771 496.88 425.411 490.96 425.411 490.96L431.041 481.77C431.041 481.77 432.341 470.77 430.281 468.36C429.371 467.27 429.781 466.14 430.531 465.21C430.92 464.902 431.331 464.621 431.761 464.37C431.761 464.37 431.701 464.28 431.631 464.15C432.024 463.822 432.442 463.524 432.881 463.26C432.881 463.26 430.881 460.16 432.671 458.85C434.351 459.99 435.851 460.85 436.991 461.55C436.911 462.28 436.831 462.7 436.831 462.7L437.311 461.7C438.411 462.32 439.081 462.7 439.081 462.7C439.081 462.7 447.901 445.13 447.711 442.54C447.521 439.95 453.711 429.04 453.711 429.04C453.711 429.04 454.461 423.31 457.841 420.91C461.221 418.51 460.461 401.12 460.461 401.12C460.461 401.12 461.401 392.06 463.651 388.36C465.901 384.66 461.601 379.67 461.601 379.67ZM292.841 371.96L293.011 376.15C292.011 374.54 291.291 373.38 291.291 373.38L292.841 371.96Z" fill="url(#paint0_linear_24_6616)"/>
<path d="M439.56 455.11L437.4 464.31C437.4 464.31 420.1 455.48 416.98 444.26C413.86 433.04 422.2 428.78 422.2 428.78L438.32 435.61L439.56 455.11Z" fill="white"/>
<path opacity="0.1" d="M439.56 455.11L437.4 464.31C437.4 464.31 420.1 455.48 416.98 444.26C413.86 433.04 422.2 428.78 422.2 428.78L438.32 435.61L439.56 455.11Z" fill="black"/>
<path d="M342.47 768.22C342.47 768.22 326.47 774.1 315.47 774.84C309.63 775.23 306.56 771.65 304.98 768.2C304.117 766.282 303.56 764.241 303.33 762.15L304.76 746.3L305.52 737.86L328.89 731.79L332.2 741.91L332.51 742.68C333.84 746.06 339.17 759.81 339.01 762.68C339.004 763.415 339.145 764.144 339.427 764.822C339.709 765.501 340.125 766.116 340.65 766.63C341.187 767.235 341.798 767.77 342.47 768.22V768.22Z" fill="white"/>
<path d="M451.76 760.16C451.8 760.641 451.753 761.126 451.62 761.59C451.62 761.59 417.4 767.3 410.4 761.59C408.427 759.922 406.126 758.685 403.646 757.958C401.167 757.232 398.562 757.031 396 757.37C396 757.37 382.76 757.73 380.55 753.37C379.63 751.54 379.87 747.99 380.44 744.49C381.022 741.211 381.797 737.968 382.76 734.78L383.29 734.36L386.44 731.83L423.32 730.74H423.6C423.42 738.28 436.12 746.93 436.12 746.93C449.61 751.93 451.6 757.58 451.76 760.16Z" fill="white"/>
<path opacity="0.1" d="M451.761 760.16C451.796 760.642 451.745 761.126 451.611 761.59C451.611 761.59 417.401 767.3 410.401 761.59C408.429 759.923 406.13 758.687 403.652 757.96C401.174 757.234 398.571 757.033 396.011 757.37C396.011 757.37 382.761 757.73 380.561 753.37C379.641 751.53 379.871 747.99 380.441 744.49C385.541 745 393.591 746.27 396.751 749.3C401.531 753.91 409.631 758.51 414.601 758.87C418.491 759.12 441.761 759.86 451.761 760.16Z" fill="black"/>
<path opacity="0.1" d="M342.47 768.22C342.47 768.22 326.47 774.1 315.47 774.84C309.63 775.23 306.56 771.65 304.99 768.19C309.06 769.56 314.71 771 317.68 769.68C321.2 768.12 333.68 767.11 340.68 766.68C341.213 767.263 341.814 767.78 342.47 768.22V768.22Z" fill="black"/>
<path d="M366.21 294.37C353.01 289.24 336.03 272.29 340.27 264.37C341.212 262.372 341.772 260.214 341.92 258.01C342.193 255.018 342.233 252.009 342.04 249.01C341.743 244.099 341.152 239.21 340.27 234.37C340.27 234.37 381.48 235.3 379.08 241.37C378.38 243.15 378.27 246.24 378.46 249.7C378.65 253.16 379.15 257.07 379.67 260.38C380.39 264.92 381.11 268.38 381.11 268.38C381.11 268.38 378.59 271.91 377.11 272.1C375.63 272.29 385.15 301.68 366.21 294.37Z" fill="#CF6F80"/>
<path opacity="0.1" d="M332.48 742.68L332.17 743.02C319.85 728.12 304.95 746.69 304.95 746.69L304.73 746.3L305.49 737.86L328.86 731.79L332.17 741.91L332.48 742.68Z" fill="black"/>
<path opacity="0.1" d="M423.611 731.79C423.611 731.79 414.611 731.6 409.811 735.84C405.011 740.08 381.811 736.76 382.811 735.84C383.107 735.384 383.286 734.862 383.331 734.32L386.481 731.79L423.361 730.7C423.501 731.37 423.611 731.79 423.611 731.79Z" fill="black"/>
<path d="M347.809 614.78C347.139 616.437 346.63 618.155 346.289 619.91C345.455 624.716 345.224 629.607 345.599 634.47C345.969 641.47 345.599 688.38 345.599 688.38C345.599 688.38 337.689 700.89 333.279 705.3C328.869 709.71 342.279 717.63 342.279 717.63C344.279 729.03 332.159 741.91 332.159 741.91C319.839 727.01 304.939 745.59 304.939 745.59C304.939 745.59 296.839 731.59 294.819 726.59C292.799 721.59 302.729 718.13 306.219 716.1C309.709 714.07 306.049 702.1 306.049 702.1C306.049 702.1 303.099 691.61 299.599 682.04C296.099 672.47 303.459 624.83 303.459 624.83C303.459 624.83 303.839 616.37 304.749 613.42C305.208 611.292 305.3 609.1 305.019 606.94C304.959 606.21 304.889 605.6 304.839 605.19C304.789 604.78 304.749 604.59 304.749 604.59L304.889 604.35L309.889 595.03C309.889 595.03 350.209 608.91 347.809 614.78Z" fill="#337ACC"/>
<path d="M423.611 730.69C423.611 730.69 414.611 730.5 409.811 734.69C405.011 738.88 381.811 735.61 382.811 734.69C383.811 733.77 383.731 726.96 383.731 726.96C370.121 708.38 381.731 700.84 381.731 700.84C381.731 700.84 375.651 671.59 374.551 660.74C373.781 653.16 372.831 632.79 372.321 621.16C372.101 616.16 371.971 612.72 371.971 612.72L383.091 610.48L384.521 610.19L411.341 604.81C411.341 604.81 412.081 609.81 412.581 613.9C412.83 615.646 412.97 617.406 413.001 619.17C412.821 621.17 413.001 627.43 413.001 627.43L413.911 646.2C413.316 648.168 413.01 650.213 413.001 652.27C413.181 654.66 416.671 688.88 416.671 688.88C416.671 688.88 422.741 709.3 420.671 710.77C418.601 712.24 423.611 730.69 423.611 730.69Z" fill="#337ACC"/>
<path opacity="0.1" d="M379.08 241.37C378.38 243.15 378.27 246.24 378.46 249.7C372.94 253.024 366.594 254.724 360.152 254.603C353.709 254.483 347.432 252.548 342.04 249.02C341.743 244.106 341.152 239.214 340.27 234.37C340.27 234.37 381.48 235.28 379.08 241.37Z" fill="black"/>
<path d="M395.011 219.27C395.019 222.873 394.452 226.455 393.331 229.88C390.826 237.553 385.688 244.094 378.827 248.346C371.965 252.599 363.821 254.288 355.834 253.117C347.848 251.945 340.532 247.988 335.181 241.944C329.829 235.901 326.787 228.16 326.591 220.09C326.591 219.81 326.591 219.55 326.591 219.27C326.513 214.727 327.341 210.215 329.026 205.996C330.71 201.777 333.218 197.935 336.403 194.695C339.588 191.456 343.386 188.882 347.576 187.126C351.765 185.369 356.263 184.465 360.806 184.465C365.349 184.465 369.847 185.369 374.036 187.126C378.226 188.882 382.024 191.456 385.209 194.695C388.394 197.935 390.902 201.777 392.586 205.996C394.271 210.215 395.099 214.727 395.021 219.27H395.011Z" fill="#CF6F80"/>
<path opacity="0.1" d="M366.21 294.37C353.01 289.24 336.03 272.29 340.27 264.37C341.212 262.371 341.772 260.214 341.92 258.01L359.99 272.86L371.17 282.03L379.67 260.39C380.39 264.93 381.11 268.39 381.11 268.39C381.11 268.39 378.59 271.92 377.11 272.11C375.63 272.3 385.15 301.68 366.21 294.37Z" fill="black"/>
<path d="M412.941 360L397.851 613.5L378.171 614.79L327.211 467.8L335.571 293.29L337.331 256.42L359.991 275.03L371.181 284.2L379.931 261.93L396.201 276.11L412.941 360Z" fill="#337ACC"/>
<path opacity="0.1" d="M347.81 614.78C347.139 616.438 346.63 618.155 346.29 619.91C331.97 617.699 318.062 613.354 305.03 607.02L304.76 606.88L304.85 605.27L304.9 604.43L309.9 595.11C309.9 595.11 350.21 608.91 347.81 614.78Z" fill="black"/>
<path opacity="0.1" d="M383.32 619.95C379.659 620.573 375.967 620.993 372.26 621.21C372.04 616.21 371.91 612.77 371.91 612.77L383.03 610.53L383.32 619.95Z" fill="black"/>
<path opacity="0.1" d="M412.521 613.95C405.411 615.8 394.431 617.88 384.601 616.58L384.461 610.24L411.281 604.86C411.281 604.86 412.021 609.81 412.521 613.95Z" fill="black"/>
<path opacity="0.1" d="M384.42 617.74C343.42 624.74 305.87 604.67 305.87 604.67L306.23 597.87C306.23 597.87 307.16 520.78 304.58 514.87C302 508.96 299.99 478.99 301.45 474.39C302.91 469.79 296.12 400.81 296.12 400.81L295.02 372.81L254.76 356.5L272.76 318.98C275.191 313.72 277.282 308.309 279.02 302.78C282.15 293.04 296.68 283.47 296.68 283.47C296.68 283.47 311.58 273.91 317.47 274.27C323.36 274.63 331.08 265.81 331.08 265.81C336.78 251.28 341.94 257.86 341.94 257.86C341.94 258.55 341.94 257.86 341.66 260.01C339.66 275.96 374 326.36 374.49 327.25L377.76 406.91L381.07 507.72L384.42 617.74Z" fill="black"/>
<path d="M383.321 617.74C342.321 624.74 304.761 604.67 304.761 604.67L305.131 597.87C305.131 597.87 306.061 520.78 303.471 514.87C300.881 508.96 298.881 478.99 300.351 474.39C301.821 469.79 295.021 400.81 295.021 400.81L293.911 372.81L253.631 356.44L271.631 318.92C274.057 313.657 276.148 308.246 277.891 302.72C281.011 292.98 295.551 283.41 295.551 283.41C295.551 283.41 310.451 273.85 316.331 274.21C322.211 274.57 329.941 265.75 329.941 265.75C335.651 251.22 341.941 257.8 341.941 257.8C341.941 258.49 341.341 258.8 341.661 259.95C346.061 275.42 372.901 326.3 373.391 327.19L376.701 406.85L380.011 507.66L383.321 617.74Z" fill="white"/>
<path opacity="0.1" d="M372.27 329.46C367.86 327.62 344.5 300.95 344.5 300.95V294.88C343.65 292.88 338.6 294.1 334.5 295.5L336.26 258.63L338.26 260.29C342.64 275.75 371.76 328.57 372.27 329.46Z" fill="black"/>
<path d="M373.38 327.25C368.96 325.41 345.6 298.74 345.6 298.74V292.67C344.75 290.67 339.7 291.89 335.6 293.29L337.37 256.42L339.37 258.08C343.76 273.54 372.89 326.37 373.38 327.25Z" fill="white"/>
<path opacity="0.1" d="M305.869 460.26C306.419 460.26 334.379 457.32 334.379 457.32C334.379 457.32 351.309 490.61 350.199 498.71C349.089 506.81 347.079 513.98 340.269 512.71C333.459 511.44 303.619 513.71 303.619 513.71L305.869 460.26Z" fill="black"/>
<path d="M304.76 458.05C305.31 458.05 333.27 455.11 333.27 455.11C333.27 455.11 350.19 488.41 349.09 496.5C347.99 504.59 345.96 511.77 339.16 510.5C332.36 509.23 302.51 511.5 302.51 511.5L304.76 458.05Z" fill="white"/>
<path d="M325.829 442.42C325.829 442.42 351.489 456.21 352.039 460.42C352.589 464.63 338.979 458.58 336.039 457.85C334.104 457.384 332.134 457.076 330.149 456.93L310.539 457.46L325.829 442.42Z" fill="#CF6F80"/>
<path opacity="0.1" d="M365.11 331.18C366.601 331.18 367.81 329.971 367.81 328.48C367.81 326.989 366.601 325.78 365.11 325.78C363.619 325.78 362.41 326.989 362.41 328.48C362.41 329.971 363.619 331.18 365.11 331.18Z" fill="black"/>
<path d="M365.11 330.08C366.601 330.08 367.81 328.871 367.81 327.38C367.81 325.889 366.601 324.68 365.11 324.68C363.619 324.68 362.41 325.889 362.41 327.38C362.41 328.871 363.619 330.08 365.11 330.08Z" fill="#3F3D56"/>
<path opacity="0.1" d="M370.081 448.06C371.572 448.06 372.781 446.851 372.781 445.36C372.781 443.869 371.572 442.66 370.081 442.66C368.59 442.66 367.381 443.869 367.381 445.36C367.381 446.851 368.59 448.06 370.081 448.06Z" fill="black"/>
<path d="M370.081 446.95C371.572 446.95 372.781 445.741 372.781 444.25C372.781 442.759 371.572 441.55 370.081 441.55C368.59 441.55 367.381 442.759 367.381 444.25C367.381 445.741 368.59 446.95 370.081 446.95Z" fill="#3F3D56"/>
<path opacity="0.1" d="M367.8 389.62C369.291 389.62 370.5 388.411 370.5 386.92C370.5 385.429 369.291 384.22 367.8 384.22C366.308 384.22 365.1 385.429 365.1 386.92C365.1 388.411 366.308 389.62 367.8 389.62Z" fill="black"/>
<path d="M367.8 388.52C369.291 388.52 370.5 387.311 370.5 385.82C370.5 384.329 369.291 383.12 367.8 383.12C366.308 383.12 365.1 384.329 365.1 385.82C365.1 387.311 366.308 388.52 367.8 388.52Z" fill="#3F3D56"/>
<path d="M430.04 456.37C430.04 456.37 431.88 459.13 430.04 460.42C428.2 461.71 430.22 464.83 430.22 464.83C430.22 464.83 425.63 467.52 427.65 469.94C429.67 472.36 428.39 483.29 428.39 483.29L422.87 492.43C422.87 492.43 423.2 498.32 423.22 506.28C423.22 518.7 422.49 536.16 418.45 544.12L419.01 609.43C419.01 609.43 399.68 616.49 383.5 614.34L381.1 509.54C381.1 509.54 384.6 450.11 385.89 438.71C386.645 432.792 386.953 426.825 386.81 420.86C386.81 420.86 386.26 403.02 384.41 394.74C384.41 394.74 382.41 358.87 382.21 348.94C382.12 344.19 382.37 330.33 382.65 317.15C382.96 302.74 383.31 289.15 383.31 289.15L379.66 260.27C379.66 260.27 383.31 259.9 384.41 261.37C384.903 261.83 385.439 262.242 386.01 262.6V262.6C392.31 266.86 414.57 279.96 414.57 279.96C414.57 279.96 426.89 284.86 429.84 291.88C432.79 298.9 434.84 303.88 436.27 305.88C437.7 307.88 438.48 317.28 438.48 317.28C438.48 317.28 442.72 334.58 446.03 337.51C449.34 340.44 451.76 359.08 451.76 359.08L422.51 382.08C422.51 382.08 419.94 420.34 419.39 421.82C418.84 423.3 430.04 456.37 430.04 456.37Z" fill="white"/>
<path d="M431.15 456.37C431.15 456.37 432.98 459.13 431.15 460.42C429.32 461.71 431.32 464.83 431.32 464.83C431.32 464.83 426.76 467.55 428.76 469.97C430.76 472.39 429.5 483.32 429.5 483.32L423.98 492.46C423.98 492.46 424.31 498.35 424.34 506.31C424.34 518.73 423.61 536.19 419.57 544.15L420.12 609.46C420.12 609.46 400.76 616.52 384.6 614.37L382.21 509.57C382.21 509.57 385.71 450.14 387 438.74C387.756 432.822 388.06 426.855 387.91 420.89C387.91 420.89 387.36 403.05 385.52 394.77C385.52 394.77 383.52 358.9 383.31 348.97C383.22 344.22 383.48 330.36 383.75 317.18C384.06 302.77 384.41 289.18 384.41 289.18L379.59 259.91C379.59 259.91 384.41 259.91 385.52 261.4C386.008 261.866 386.544 262.278 387.12 262.63C393.42 266.89 415.69 279.99 415.69 279.99C415.69 279.99 428 284.89 430.95 291.91C433.9 298.93 435.95 303.91 437.39 305.91C438.83 307.91 439.59 317.31 439.59 317.31C439.59 317.31 443.83 334.61 447.14 337.54C450.45 340.47 452.84 359.07 452.84 359.07L423.59 382.07C423.59 382.07 421.02 420.33 420.46 421.81C419.9 423.29 431.15 456.37 431.15 456.37Z" fill="white"/>
<path opacity="0.1" d="M396.119 297.67L398.759 305.37L384.859 319.37C385.169 304.97 385.519 291.37 385.519 291.37L380.699 262.1C380.699 262.1 385.519 262.1 386.629 263.59C387.116 264.054 387.653 264.463 388.229 264.81L400.049 298.91L396.119 297.67Z" fill="black"/>
<path d="M395.01 295.46L397.66 303.16L383.76 317.16C384.07 302.75 384.42 289.16 384.42 289.16L379.59 259.89C379.59 259.89 384.42 259.89 385.52 261.38C386.01 261.843 386.546 262.255 387.12 262.61L398.95 296.7L395.01 295.46Z" fill="white"/>
<path opacity="0.1" d="M395.011 219.27C395.019 222.873 394.452 226.455 393.331 229.88C393.142 229.909 392.949 229.901 392.764 229.854C392.578 229.808 392.404 229.725 392.251 229.61C391.991 220.61 387.561 212.16 382.111 204.97C380.581 202.799 378.726 200.876 376.611 199.27C374.473 197.664 371.813 196.912 369.151 197.16C366.151 197.57 363.501 199.61 360.471 199.87C356.471 200.2 352.891 197.43 348.921 197.29C347.307 197.305 345.715 197.664 344.251 198.344C342.787 199.023 341.485 200.007 340.431 201.23C338.345 203.697 336.796 206.571 335.881 209.67C334.309 214.368 333.452 219.277 333.341 224.23C333.291 227.03 333.021 230.54 330.421 231.56C330.617 229.501 330.383 227.423 329.734 225.459C329.085 223.495 328.035 221.687 326.651 220.15L326.591 220.09C326.591 219.81 326.591 219.55 326.591 219.27C326.513 214.727 327.341 210.215 329.026 205.996C330.71 201.777 333.218 197.935 336.403 194.695C339.588 191.456 343.386 188.882 347.576 187.126C351.765 185.369 356.263 184.465 360.806 184.465C365.349 184.465 369.847 185.369 374.036 187.126C378.226 188.882 382.024 191.456 385.209 194.695C388.394 197.935 390.902 201.777 392.586 205.996C394.271 210.215 395.099 214.727 395.021 219.27H395.011Z" fill="black"/>
<path d="M374.97 164.94C369.774 162.496 363.863 162.033 358.35 163.64C355.58 164.46 352.97 165.79 350.16 166.46C344.16 167.91 337.16 166.34 332.01 169.85C329.15 171.85 327.43 175.01 325.83 178.08L321.83 185.7C319.65 189.87 317.45 194.11 316.54 198.7C315.63 203.29 316.18 208.43 319.09 212.12C321.21 214.81 324.34 216.5 326.64 219.03C328.018 220.569 329.063 222.376 329.71 224.338C330.357 226.299 330.592 228.373 330.4 230.43C333.01 229.43 333.26 225.91 333.32 223.11C333.432 218.157 334.288 213.249 335.86 208.55C336.773 205.451 338.323 202.576 340.41 200.11C341.465 198.888 342.767 197.905 344.231 197.226C345.695 196.547 347.286 196.187 348.9 196.17C352.9 196.31 356.49 199.07 360.45 198.74C363.45 198.49 366.11 196.44 369.13 196.04C371.793 195.788 374.454 196.541 376.59 198.15C378.704 199.754 380.556 201.677 382.08 203.85C387.54 211.04 391.97 219.47 392.23 228.49C393.36 229.32 394.99 228.24 395.55 226.96C396.11 225.68 396.13 224.18 396.84 222.96C397.66 221.55 399.23 220.8 400.46 219.74C403.58 217.05 404.36 212.52 404.24 208.41C404.12 204.3 403.32 200.13 404.1 196.09C404.57 193.61 405.63 191.29 406.21 188.84C406.79 186.39 406.86 183.64 405.49 181.53C403.49 178.43 399.28 177.82 395.61 177.53C391.44 177.17 387.71 177.63 385.05 174.12C383.802 172.288 382.396 170.569 380.85 168.98C380.32 168.46 374.97 165.16 374.97 164.94Z" fill="#512E4E"/>
<path opacity="0.1" d="M266.28 375.82L255.83 356.5L252.52 386.31C252.52 386.31 254.36 399.55 253.99 401.58C253.62 403.61 261.53 421.81 261.53 421.81C261.53 421.81 287.66 468.35 298.33 470.75L334.38 444.99L324.82 432.85C324.82 432.85 321.51 431.56 320.68 432.85C320.68 432.85 302.93 402.31 301.09 400.1C299.25 397.89 299.61 393.48 299.61 393.48C299.61 393.48 296.85 390.54 297.77 387.78C298.69 385.02 292.44 375.45 292.44 375.45L298.14 370.12L266.28 375.82Z" fill="black"/>
<path d="M256.381 354.3L253.621 356.5L250.311 386.31C250.311 386.31 252.151 399.55 251.781 401.58C251.411 403.61 259.331 421.81 259.331 421.81C259.331 421.81 285.451 468.35 296.121 470.75L332.181 444.99L322.611 432.85C322.611 432.85 319.301 431.56 318.471 432.85C318.471 432.85 300.721 402.31 298.881 400.1C297.041 397.89 297.411 393.48 297.411 393.48C297.411 393.48 294.651 390.54 295.571 387.78C296.491 385.02 290.231 375.45 290.231 375.45L295.931 370.12L256.381 354.3Z" fill="white"/>
<path opacity="0.1" d="M427.65 471.08C429.65 473.51 428.39 484.42 428.39 484.42L422.87 493.56C422.87 493.56 423.2 499.46 423.22 507.41L413.94 510.31C413.101 510.571 412.212 510.629 411.346 510.477C410.481 510.326 409.664 509.97 408.965 509.438C408.265 508.907 407.702 508.216 407.324 507.423C406.946 506.63 406.763 505.758 406.79 504.88L408.39 453.27L430.04 461.55C428.2 462.83 430.22 465.97 430.22 465.97C430.22 465.97 425.63 468.65 427.65 471.08Z" fill="black"/>
<path d="M428.759 469.97C430.759 472.4 429.499 483.32 429.499 483.32L423.979 492.46C423.979 492.46 424.309 498.35 424.339 506.31L414.889 509.26C414.068 509.515 413.197 509.571 412.35 509.421C411.503 509.272 410.704 508.923 410.019 508.402C409.334 507.882 408.784 507.206 408.413 506.429C408.043 505.653 407.863 504.8 407.889 503.94L409.499 452.17L431.159 460.45C429.309 461.73 431.329 464.86 431.329 464.86C431.329 464.86 426.759 467.55 428.759 469.97Z" fill="white"/>
<path d="M435.929 445.37C435.929 445.37 434.459 454.76 430.779 455.31C427.099 455.86 425.449 470.5 421.779 469.98C418.109 469.46 420.539 456.37 420.669 453.83C420.799 451.29 416.669 440.77 419.759 438.38C422.849 435.99 432.629 438.38 432.629 438.38L435.929 445.37Z" fill="#CF6F80"/>
<path opacity="0.1" d="M443.76 373.06L450.7 359.06C450.7 359.06 453.46 369.73 453.46 375.43C453.46 381.13 457.32 381.69 457.32 381.69C457.32 381.69 461.55 386.69 459.32 390.33C457.09 393.97 456.19 403.03 456.19 403.03C456.19 403.03 456.92 420.32 453.61 422.71C450.3 425.1 449.61 430.81 449.61 430.81C449.61 430.81 443.53 441.66 443.72 444.24C443.91 446.82 435.26 464.29 435.26 464.29C435.26 464.29 439.49 442.58 414.84 433.2C414.84 433.2 414.65 425.83 416.49 423.81C418.33 421.79 421.2 420.87 419.4 410.66C417.6 400.45 418.88 388.25 418.88 385.8C418.88 383.35 424.4 368.07 424.4 368.07L443.76 373.06Z" fill="black"/>
<path d="M446.761 357.06L452.821 359.06C452.821 359.06 455.591 369.73 455.591 375.43C455.591 381.13 459.451 381.69 459.451 381.69C459.451 381.69 463.681 386.69 461.451 390.33C459.221 393.97 458.331 403.03 458.331 403.03C458.331 403.03 459.061 420.32 455.751 422.71C452.441 425.1 451.701 430.81 451.701 430.81C451.701 430.81 445.631 441.66 445.821 444.24C446.011 446.82 437.351 464.29 437.351 464.29C437.351 464.29 441.591 442.58 416.931 433.2C416.931 433.2 416.751 425.83 418.591 423.81C420.431 421.79 423.301 420.87 421.501 410.66C419.701 400.45 420.981 388.25 420.981 385.8C420.981 383.35 426.501 368.07 426.501 368.07L446.761 357.06Z" fill="white"/>
<path opacity="0.1" d="M312.91 719.93C312.91 719.93 322.57 713.86 328.91 718.27C335.25 722.68 312.91 719.93 312.91 719.93Z" fill="black"/>
<path opacity="0.1" d="M387.971 701.159C387.971 701.159 396.521 700.059 403.701 707.789C410.881 715.519 387.971 701.159 387.971 701.159Z" fill="black"/>
<g opacity="0.1">
<path d="M400.479 217.55C399.249 218.61 397.669 219.37 396.849 220.78C396.149 221.99 396.129 223.48 395.569 224.78C395.009 226.08 393.379 227.14 392.249 226.32C391.989 217.32 387.549 208.87 382.099 201.67C380.576 199.497 378.724 197.574 376.609 195.97C374.469 194.361 371.805 193.609 369.139 193.86C366.139 194.27 363.499 196.31 360.469 196.56C356.469 196.9 352.879 194.13 348.909 193.99C347.296 194.006 345.705 194.367 344.242 195.048C342.78 195.729 341.48 196.715 340.429 197.94C338.342 200.402 336.792 203.274 335.879 206.37C334.308 211.069 333.452 215.977 333.339 220.93C333.279 223.72 333.019 227.2 330.439 228.24C330.5 228.979 330.5 229.721 330.439 230.46C333.039 229.46 333.299 225.94 333.359 223.14C333.471 218.187 334.327 213.278 335.899 208.58C336.812 205.481 338.362 202.606 340.449 200.14C341.502 198.919 342.803 197.936 344.265 197.256C345.727 196.577 347.317 196.217 348.929 196.2C352.929 196.34 356.529 199.1 360.489 198.77C363.489 198.52 366.149 196.47 369.159 196.07C371.825 195.818 374.489 196.571 376.629 198.18C378.744 199.784 380.596 201.707 382.119 203.88C387.569 211.07 392.009 219.5 392.269 228.52C393.399 229.35 395.029 228.27 395.589 226.99C396.149 225.71 396.169 224.21 396.869 222.99C397.689 221.58 399.269 220.83 400.499 219.77C403.619 217.08 404.399 212.55 404.279 208.44C404.279 208.31 404.279 208.18 404.279 208.06C404.089 211.62 403.139 215.25 400.479 217.55Z" fill="black"/>
<path d="M326.66 216.84C324.36 214.31 321.22 212.62 319.11 209.94C317.333 207.568 316.318 204.712 316.2 201.75C315.885 205.451 316.919 209.141 319.11 212.14C321.22 214.83 324.36 216.52 326.66 219.05C328.868 221.525 330.194 224.662 330.43 227.97C330.583 225.957 330.328 223.933 329.68 222.02C329.032 220.108 328.005 218.346 326.66 216.84V216.84Z" fill="black"/>
<path d="M406.231 186.65C405.641 189.1 404.591 191.43 404.111 193.9C403.826 195.55 403.722 197.227 403.801 198.9C403.834 197.947 403.938 196.998 404.111 196.06C404.591 193.58 405.641 191.26 406.231 188.81C406.574 187.459 406.686 186.059 406.561 184.67C406.498 185.337 406.388 185.999 406.231 186.65V186.65Z" fill="black"/>
</g>
<path opacity="0.1" d="M132.729 760.59C186.544 760.59 230.169 753.583 230.169 744.94C230.169 736.297 186.544 729.29 132.729 729.29C78.9144 729.29 35.2891 736.297 35.2891 744.94C35.2891 753.583 78.9144 760.59 132.729 760.59Z" fill="#337ACC"/>
<path d="M135.87 445.14H129.6V586.31H135.87V445.14Z" fill="#535461"/>
<path d="M175.27 585.88L174.88 592.24L174.32 601.24L174.09 604.98L173.54 613.98L173.3 617.72L172.74 626.72L166.42 728.79C166.145 733.181 164.207 737.303 161.001 740.317C157.794 743.33 153.56 745.008 149.16 745.01H116.3C111.9 745.008 107.667 743.33 104.462 740.316C101.257 737.302 99.3218 733.181 99.0495 728.79L92.7595 626.65L92.1995 617.65L91.9695 613.91L91.4095 604.91L91.1795 601.17L90.6195 592.17L90.2195 585.81C90.1501 584.586 90.3314 583.36 90.7525 582.209C91.1736 581.057 91.8255 580.004 92.6682 579.114C93.511 578.223 94.5268 577.514 95.6534 577.03C96.7799 576.546 97.9935 576.298 99.2195 576.3H166.43C167.651 576.31 168.857 576.571 169.974 577.066C171.091 577.561 172.094 578.279 172.923 579.177C173.751 580.075 174.387 581.132 174.79 582.285C175.194 583.438 175.357 584.661 175.27 585.88V585.88Z" fill="#3F3D56"/>
<path d="M174.88 592.24L174.32 601.21H91.1401L90.5801 592.24H174.88Z" fill="#9D9CB5"/>
<path d="M174.089 604.95L173.539 613.93H91.9291L91.3691 604.95H174.089Z" fill="#9D9CB5"/>
<path d="M173.3 617.68L172.75 626.65H92.7202L92.1602 617.68H173.3Z" fill="#9D9CB5"/>
<path d="M81.0098 498.05C117.52 524.47 132.76 565.79 132.76 565.79C132.76 565.79 88.7598 564.28 52.2398 537.86C15.7198 511.44 0.509766 470.13 0.509766 470.13C0.509766 470.13 44.4898 471.63 81.0098 498.05Z" fill="#337ACC"/>
<path d="M0.480469 470.13C0.480469 470.13 46.1605 495.48 60.8105 516.47C75.4605 537.46 132.76 565.79 132.76 565.79" stroke="#535461" stroke-width="2" stroke-miterlimit="10"/>
<path d="M104.58 444.83C124.45 459.2 132.76 481.69 132.76 481.69C132.76 481.69 108.81 480.87 88.9298 466.5C69.0498 452.13 60.7598 429.63 60.7598 429.63C60.7598 429.63 84.6998 430.45 104.58 444.83Z" fill="#337ACC"/>
<path d="M60.7598 429.63C60.7598 429.63 85.6198 443.43 93.5898 454.85C101.56 466.27 132.76 481.69 132.76 481.69" stroke="#535461" stroke-width="2" stroke-miterlimit="10"/>
<path d="M161.609 480.55C138.779 505.64 133.949 538.43 133.949 538.43C133.949 538.43 166.139 530.53 188.949 505.43C211.759 480.33 216.609 447.55 216.609 447.55C216.609 447.55 184.439 455.46 161.609 480.55Z" fill="#337ACC"/>
<path d="M216.629 447.56C216.629 447.56 186.889 473.28 179.329 491C171.769 508.72 133.949 538.43 133.949 538.43" stroke="#535461" stroke-width="2" stroke-miterlimit="10"/>
<path d="M999.671 471.72C999.671 471.72 983.16 389.58 989.48 379.36C989.48 379.36 989.71 369.86 989.33 357.75C989.33 357.29 989.33 356.83 989.33 356.36C990.442 357.101 991.602 357.769 992.801 358.36C998.623 361.351 1005.31 362.214 1011.7 360.8L1006.7 355.23C1005.5 353.9 1004.25 352.46 1003.99 350.7C1003.73 348.94 1004.45 347.37 1005.07 345.8C1009.82 333.8 1010.07 318.71 1000.92 309.55C993.191 301.85 991.311 291.91 982.921 284.88C976.791 279.73 973.42 272.18 970.24 264.88C967.55 258.71 964.84 252.49 963.3 245.95C962.1 240.84 961.621 235.55 959.971 230.56C958.321 225.57 955.231 220.72 950.401 218.49C948.681 217.7 946.771 217.25 945.201 216.2C943.141 214.81 941.901 212.55 940.411 210.57C932.841 200.57 907.49 206.46 895.49 210.52C892.228 211.542 889.207 213.216 886.61 215.44L886.721 215.26C886.811 215.11 886.921 214.96 887.021 214.81C885.707 215.872 884.573 217.138 883.661 218.56C881.911 221.33 881.181 224.56 879.721 227.56C877.961 231.11 868.17 241.02 872.38 245.01C872.676 245.278 873.014 245.494 873.38 245.65C874.961 246.307 876.701 246.481 878.38 246.15L878.201 246.58C876.763 250.1 876.026 253.867 876.031 257.67C876.031 274.1 889.58 287.42 906.31 287.42C909.456 287.423 912.582 286.94 915.581 285.99C915.651 286.37 915.711 286.75 915.781 287.13C915.781 287.28 915.831 287.43 915.851 287.58L915.32 288.32C915.294 288.274 915.264 288.231 915.23 288.19L899.531 310.13C897.131 311.82 883.311 321.82 882.531 329.32C881.711 337.53 880.891 347.14 880.891 347.14L880.781 349.2C880.094 349.773 879.292 350.191 878.429 350.424C877.565 350.657 876.662 350.7 875.781 350.55C870.881 349.75 870.88 368.55 870.88 368.55C870.88 368.55 867.62 371.55 865.38 368.95C863.14 366.35 857.221 375.16 857.221 375.16L820.12 376.76L819.271 376.81L817.271 370.62C817.055 369.967 816.591 369.425 815.979 369.112C815.367 368.8 814.656 368.741 814 368.95C813.846 369.001 813.695 369.064 813.55 369.14L813.411 369.22L813.151 369.4L813.021 369.52C812.949 369.585 812.882 369.655 812.82 369.73L812.701 369.87L812.641 369.93C812.41 370.249 812.257 370.618 812.194 371.007C812.132 371.396 812.161 371.794 812.281 372.17L814 377.48C806.84 378.92 799.52 382.98 805.49 394.16L775.23 388.57L785.021 396.79L835.56 407.22C834.89 408.42 835.33 410.16 837.42 412.61C846.42 423.18 862.82 426.05 869.42 426.79C871.163 430.689 873.341 434.379 875.911 437.79L875.341 448.32C875.341 448.32 858.63 528.58 855.57 532.65C857.115 530.899 858.529 529.038 859.8 527.08C854.95 543.57 848.171 566.14 846.391 569.52C843.531 574.92 840.881 596.77 844.141 598.17C845.141 598.6 848.001 598.39 852.081 598.08V599.89L851.901 668.48C851.901 668.48 852.721 710.55 850.471 714.56C848.221 718.57 847.62 726.98 847.62 726.98C847.62 726.98 838.62 743.57 831.49 750.24C831.442 750.292 831.388 750.338 831.331 750.38L831.11 748.82C831.11 748.82 822.541 759.64 803.581 759.03C803.581 759.03 792.171 766.45 809.091 766.85C826.011 767.25 847.62 766.25 847.62 766.25C847.62 766.25 862.711 743.25 875.351 746.25V763.68H879.221V745.97C881.015 744.788 882.551 743.254 883.736 741.462C884.92 739.669 885.728 737.654 886.11 735.54C886.442 733.36 886.199 731.132 885.406 729.075C884.614 727.018 883.299 725.203 881.591 723.81C880.823 723.116 880.208 722.271 879.782 721.328C879.357 720.385 879.132 719.364 879.12 718.33L878.98 718.45C878.98 718.1 878.891 717.74 878.851 717.37C877.741 708.37 876.35 689.8 881.26 676.06C887.99 657.22 890.03 630.98 885.13 615.36C883.549 610.367 882.251 605.289 881.24 600.15C881.12 599.5 881.011 598.88 880.911 598.3C884.26 598.753 887.577 599.421 890.841 600.3C902.191 603.43 927.021 604.01 948.221 603.84C948.271 604.42 948.331 605.03 948.401 605.64C948.778 609.88 949.569 614.073 950.76 618.16C953.42 626.16 954.641 661.43 954.641 661.43C954.641 661.43 958.071 690.43 956.201 702.23C955.201 708.79 954.2 715.38 953.63 722V722.13C953.63 722.13 948.011 738.13 943.901 746.82C943.801 747.04 943.691 747.26 943.591 747.47C942.495 747.57 941.416 747.808 940.38 748.18C940.38 748.18 934.87 759.18 929.38 761C923.89 762.82 925.711 768.81 938.141 766.61C950.571 764.41 969.341 762.61 969.341 762.61L970.151 751.39L973.971 746.61L972.971 757.8L977.041 757L976.5 743.39L982.75 735.57C982.75 735.57 990.3 728.85 979.08 715.63V715.92C978.96 715.73 978.85 715.53 978.72 715.34V715.28C976.86 712.4 975.38 707.03 978.09 697.5C982.99 680.28 985.84 664.65 985.84 664.65C985.84 664.65 996.78 622.78 983.63 602.97H984.21C982.863 600.182 981.91 597.22 981.38 594.17C981.314 593.81 981.254 593.44 981.2 593.06C990.93 592.5 1000.48 590.74 1008.27 586.94C1008.24 586.9 1003.55 487.54 999.671 471.72ZM876.141 402.42V402.62L874.141 402.72L876.141 402.42ZM869.281 403.37C868.952 403.443 868.644 403.59 868.38 403.8C867.521 405.016 866.981 406.43 866.81 407.91L863.69 407.21C863.69 407.21 861.501 406.74 858.351 406.21L856.86 404.71C860.96 404.37 865.221 403.87 869.281 403.37V403.37Z" fill="url(#paint1_linear_24_6616)"/>
<path d="M972.51 743.53L971.32 757.7L975.31 756.9L974.71 741.53L972.51 743.53Z" fill="#1D2366"/>
<path d="M881.481 676.25C876.671 689.95 878.031 708.44 879.111 717.42C879.511 720.74 879.881 722.76 879.881 722.76C879.881 722.76 872.691 739.14 872.091 739.76C871.491 740.38 850.931 752.93 850.931 752.93L836.561 761.32C836.561 761.32 821.981 754.93 828.971 752.73C830.399 752.157 831.685 751.28 832.741 750.16C839.741 743.51 848.531 726.98 848.531 726.98C848.531 726.98 849.131 718.59 851.331 714.6C853.531 710.61 852.731 668.68 852.731 668.68L852.901 600.33V591.42L880.251 591.62C880.423 594.645 880.818 597.653 881.431 600.62C882.413 605.741 883.685 610.803 885.241 615.78C890.061 631.37 888.061 657.48 881.481 676.25Z" fill="#FFB0B1"/>
<path opacity="0.1" d="M879.881 722.76C879.881 722.76 872.691 739.14 872.091 739.76C871.491 740.38 850.931 752.93 850.931 752.93L836.561 761.32C836.561 761.32 821.981 754.93 828.971 752.73C830.399 752.157 831.685 751.28 832.741 750.16L833.361 754.53L838.151 754.33L879.151 717.44C879.511 720.74 879.881 722.76 879.881 722.76Z" fill="black"/>
<path d="M879.38 718.37L838.15 755.51L833.36 755.71L832.36 748.71C832.36 748.71 823.98 759.49 805.36 758.89C805.36 758.89 794.18 766.28 810.75 766.68C827.32 767.08 848.48 766.08 848.48 766.08C848.48 766.08 863.26 743.08 875.63 746.08V763.45H879.43V745.92C881.197 744.731 882.705 743.196 883.863 741.409C885.021 739.622 885.806 737.619 886.17 735.52C886.499 733.358 886.266 731.149 885.494 729.103C884.722 727.057 883.436 725.245 881.76 723.84C881.012 723.139 880.415 722.291 880.005 721.351C879.596 720.41 879.383 719.396 879.38 718.37V718.37Z" fill="#1D2366"/>
<path d="M976.311 697.61C973.651 707.11 975.101 712.46 976.921 715.33V715.39C979.255 718.933 980.878 722.897 981.701 727.06L981.861 727.96L963.101 755.31L952.921 759.31C952.921 759.31 936.551 753.72 939.541 752.12C940.291 751.73 941.461 749.65 942.801 746.78C946.801 738.13 952.321 722.17 952.321 722.17V722.04C952.901 715.45 953.821 708.88 954.841 702.34C956.671 690.57 953.311 661.68 953.311 661.68C953.311 661.68 952.111 626.55 949.511 618.56C948.337 614.497 947.557 610.331 947.181 606.12C946.641 601.12 946.521 597 946.521 597C946.521 597 957.301 582 977.061 598.2C978.641 599.492 980.031 601 981.191 602.68C994.841 622.1 983.851 664.88 983.851 664.88C983.851 664.88 981.101 680.44 976.311 697.61Z" fill="#FFB0B1"/>
<path opacity="0.1" d="M981.89 727.96L963.13 755.31L952.95 759.31C952.95 759.31 936.58 753.72 939.57 752.12C940.32 751.73 941.49 749.65 942.83 746.78C949.76 746.72 953.35 753.32 953.35 753.32L962.13 751.92C962.13 751.92 973.71 729.16 976.31 727.77C978.91 726.38 976.71 717.38 976.71 717.38V715.09C976.78 715.17 976.84 715.26 976.92 715.34V715.4C979.254 718.943 980.878 722.907 981.7 727.07L981.89 727.96Z" fill="black"/>
<path d="M953.949 753.91C953.949 753.91 948.949 744.73 939.369 748.12C939.369 748.12 933.98 759.12 928.59 760.9C923.2 762.68 924.999 768.68 937.179 766.49C949.359 764.3 967.72 762.49 967.72 762.49L968.519 751.3L980.899 735.53C980.899 735.53 988.28 728.84 977.3 715.67V717.96C977.3 717.96 979.499 726.96 976.899 728.35C974.299 729.74 962.759 752.51 962.759 752.51L953.949 753.91Z" fill="#1D2366"/>
<path opacity="0.1" d="M880.28 591.6C880.453 594.625 880.847 597.633 881.46 600.6C870.2 598.95 859.75 599.77 852.9 600.31V591.4L880.28 591.6Z" fill="black"/>
<path opacity="0.1" d="M982.301 605.17C982.301 605.17 966.301 605.95 947.221 606.11C946.681 601.11 946.561 596.99 946.561 596.99C946.561 596.99 957.341 581.99 977.101 598.19C978.681 599.482 980.071 600.99 981.231 602.67C981.54 603.522 981.898 604.357 982.301 605.17V605.17Z" fill="black"/>
<path d="M982.3 603.37C982.3 603.37 912.22 606.76 890.86 600.77C869.5 594.78 848.33 599.97 845.14 598.58C841.95 597.19 844.54 575.42 847.34 570.03C850.14 564.64 865.5 510.13 865.5 510.13L880.28 433.07L895.85 428.78L896.95 428.47L924.08 420.99L943.96 415.5C943.96 415.5 983.49 569.83 980.1 581.21C978.869 585.568 978.67 590.152 979.52 594.6C980.038 597.637 980.973 600.589 982.3 603.37V603.37Z" fill="#1D2366"/>
<path d="M828.759 380.37C828.759 380.37 814.759 395.37 825.359 403.73C835.959 412.09 842.929 404.53 842.929 404.53L828.759 380.37Z" fill="#C7DAF5"/>
<path opacity="0.1" d="M828.759 380.37C828.759 380.37 814.759 395.37 825.359 403.73C835.959 412.09 842.929 404.53 842.929 404.53L828.759 380.37Z" fill="black"/>
<path d="M941.87 281.75C941.87 281.75 940.23 283.31 937.76 285.61C934.24 288.9 929.03 293.71 924.41 297.74C918.01 303.31 912.73 307.4 914.62 303.91C916.51 300.42 916.15 294.34 915.21 288.65C915.14 288.27 915.08 287.89 915.01 287.52C914.232 283.341 913.2 279.214 911.92 275.16C911.92 275.16 922.26 261.8 927.98 256.53C930.11 254.53 931.6 253.71 931.69 255.1C931.79 256.97 933.19 261.1 934.93 265.48C934.98 265.62 935.03 265.75 935.09 265.89C936.25 268.89 937.56 271.97 938.71 274.63C940.47 278.71 941.87 281.75 941.87 281.75Z" fill="#FFB0B1"/>
<path opacity="0.1" d="M935.09 265.89C934.118 271.116 931.761 275.986 928.264 279.99C924.766 283.993 920.258 286.984 915.21 288.65C914.415 284.085 913.316 279.578 911.92 275.16C911.92 275.16 931.39 250.01 931.69 255.1C931.76 257.03 933.28 261.31 935.09 265.89Z" fill="black"/>
<path opacity="0.1" d="M913.27 295.37L915.79 291.82C915.79 291.82 917.46 302 923.6 297.51C929.74 293.02 930.04 331.3 930.04 331.3L923.45 429.83L875.83 426.98L877.18 379.37L882.57 355.37L895.9 320.48L903.83 308.95L913.27 295.37Z" fill="black"/>
<path d="M930.039 331.91L924.039 421L923.409 430.44L896.859 428.85L895.859 428.79L875.859 427.59L877.209 379.97L882.599 355.97L895.929 321.08L903.859 309.55L913.299 295.92L915.819 292.38C915.819 292.38 917.489 302.56 923.629 298.07L923.759 297.98C929.759 294.18 930.039 331.91 930.039 331.91Z" fill="#1D2366"/>
<path d="M883.271 347.63C883.271 347.63 880.881 352.63 876.081 351.82C871.281 351.01 871.291 369.82 871.291 369.82C871.291 369.82 868.101 372.82 865.901 370.22C863.701 367.62 857.901 376.41 857.901 376.41L821.561 378.01C821.561 378.01 837.731 385.4 834.561 407.76C834.561 407.76 889.461 404.36 891.261 399.17C893.061 393.98 883.271 347.63 883.271 347.63Z" fill="white"/>
<path opacity="0.03" d="M883.271 347.63C883.271 347.63 880.881 352.63 876.081 351.82C871.281 351.01 871.291 369.82 871.291 369.82C871.291 369.82 868.101 372.82 865.901 370.22C863.701 367.62 857.901 376.41 857.901 376.41L821.561 378.01C821.561 378.01 837.731 385.4 834.561 407.76C834.561 407.76 889.461 404.36 891.261 399.17C893.061 393.98 883.271 347.63 883.271 347.63Z" fill="black"/>
<path d="M777.66 389.76L787.24 397.94L866.1 414.51L856.32 404.53L777.66 389.76Z" fill="white"/>
<path d="M913.42 298.52C912.11 300.52 908.36 310.76 905.23 319.7C902.62 327.15 900.44 333.7 900.44 333.7C900.44 333.7 895.35 366.84 892.75 372.83C890.15 378.82 891.56 402.18 891.56 402.18L881.87 459.87C881.87 459.87 877.48 489.62 870.7 507.39C864.01 524.88 856.56 533.08 856.33 533.34C859.33 529.28 875.68 449.34 875.68 449.34L881.08 348.52C881.08 348.52 881.87 338.94 882.67 330.75C883.47 322.56 899.67 311.38 899.67 311.38L915.29 289.17C916.86 291.27 915.81 294.93 913.42 298.52Z" fill="white"/>
<path d="M872.689 428.09C872.689 428.09 849.689 427.09 838.549 413.71C827.409 400.33 864.299 408.37 864.299 408.37L873.889 410.57L872.689 428.09Z" fill="#FFB0B1"/>
<path opacity="0.1" d="M980.1 581.22C978.868 585.577 978.67 590.162 979.52 594.61C954.43 596.39 927.59 589.61 927.59 589.61C922.59 594.21 909.42 600.99 909.42 600.99L902.24 511.99C897.65 499.99 895.85 437.12 895.85 437.12C895.85 437.12 896.26 433.83 896.85 428.9C896.85 428.78 896.85 428.65 896.9 428.53C898.69 414.76 902.24 388.91 903.98 385.42C906.38 380.62 896.6 367.85 896.6 367.85L901.05 329.9L901.59 325.32C910.97 321.13 918.16 307.75 918.16 307.75L923.68 298.08C929.68 294.23 929.99 331.96 929.99 331.96L923.99 421.05L943.87 415.56C943.87 415.56 983.49 569.84 980.1 581.22Z" fill="black"/>
<path d="M1005.85 587.37C978.501 600.95 928.791 588.37 928.791 588.37C923.791 592.97 910.621 599.75 910.621 599.75L903.431 510.75C898.851 498.75 897.051 435.88 897.051 435.88C897.051 435.88 902.831 388.97 905.231 384.18C905.931 382.78 905.591 380.7 904.761 378.46C900.68 367.798 899.179 356.322 900.381 344.97L902.301 328.66L902.831 324.09C912.221 319.89 919.411 306.51 919.411 306.51L924.411 297.75L933.611 281.61L937.971 273.97L938.711 274.64L944.361 279.76C944.361 279.76 946.761 281.76 950.361 284.76C958.191 291.36 971.721 302.98 978.701 310.09C984.841 316.35 986.781 340.7 987.341 359.03C987.711 371.1 987.491 380.56 987.491 380.56C981.301 390.75 997.491 472.56 997.491 472.56C1001.26 488.37 1005.85 587.37 1005.85 587.37Z" fill="white"/>
<path opacity="0.03" d="M953.351 306.31C953.351 306.31 934.581 342.04 936.761 355.62C938.941 369.2 945.141 384.57 942.151 388.16C941.123 389.52 939.795 390.624 938.27 391.386C936.746 392.147 935.065 392.546 933.361 392.55C930.361 392.75 922.361 398.34 922.361 398.94C922.361 399.54 914.971 399.54 908.361 402.34C901.751 405.14 891.991 406.73 891.991 406.73C891.991 406.73 872.991 406.13 871.221 407.93C869.451 409.73 867.631 420.5 871.421 429.09C875.211 437.68 879.421 444.09 882.601 445.26C885.781 446.43 905.961 439.67 922.331 438.07C938.701 436.47 956.471 423.5 956.471 423.5C956.471 423.5 976.041 416.5 979.471 404.73C982.901 392.96 975.281 328.27 975.281 328.27C975.281 328.27 969.521 298.12 953.351 306.31Z" fill="black"/>
<path opacity="0.03" d="M950.951 303.31C950.951 303.31 932.181 339.05 934.381 352.62C936.581 366.19 942.761 381.57 939.761 385.17C938.737 386.532 937.411 387.637 935.887 388.399C934.364 389.161 932.684 389.558 930.981 389.56C927.981 389.76 919.981 395.35 919.981 395.95C919.981 396.55 912.591 396.55 905.981 399.34C899.371 402.13 889.611 403.73 889.611 403.73C889.611 403.73 870.611 403.13 868.851 404.93C867.091 406.73 865.251 417.51 869.051 426.09C872.851 434.67 877.051 441.09 880.231 442.26C883.411 443.43 903.591 436.67 919.961 435.08C936.331 433.49 954.101 420.5 954.101 420.5C954.101 420.5 973.661 413.5 977.051 401.74C980.441 389.98 972.861 325.27 972.861 325.27C972.861 325.27 967.121 295.13 950.951 303.31Z" fill="black"/>
<path d="M952.76 304.51C952.76 304.51 933.99 340.25 936.19 353.82C938.39 367.39 944.57 382.77 941.58 386.36C940.557 387.725 939.23 388.833 937.704 389.596C936.179 390.36 934.496 390.758 932.79 390.76C929.79 390.96 921.79 396.55 921.79 397.14C921.79 397.73 914.41 397.74 907.79 400.54C901.17 403.34 891.42 404.93 891.42 404.93C891.42 404.93 872.42 404.33 870.65 406.13C868.88 407.93 867.06 418.71 870.85 427.29C874.64 435.87 878.85 442.29 882.03 443.46C885.21 444.63 905.39 437.87 921.76 436.27C938.13 434.67 955.9 421.7 955.9 421.7C955.9 421.7 975.47 414.7 978.9 402.93C982.33 391.16 974.76 326.47 974.76 326.47C974.76 326.47 968.92 296.37 952.76 304.51Z" fill="white"/>
<path opacity="0.1" d="M952.35 400.37C952.35 400.37 937.35 397.37 942.57 402.37C947.79 407.37 947.76 411.75 954.15 411.55C960.54 411.35 952.35 400.37 952.35 400.37Z" fill="black"/>
<path opacity="0.1" d="M977.701 507.95C977.701 507.95 970.921 512.54 983.891 523.12C996.861 533.7 977.701 507.95 977.701 507.95Z" fill="black"/>
<path opacity="0.1" d="M964.76 545.68C964.76 546.28 962.36 567.68 971.34 573.03C980.32 578.38 964.76 545.68 964.76 545.68Z" fill="black"/>
<path d="M822.18 377.96C814.94 378.21 799.3 380.42 807.41 395.55C814.58 408.94 826.63 399.99 833.41 393.2C831.757 386.869 827.737 381.415 822.18 377.96V377.96Z" fill="#FFB0B1"/>
<path d="M833.5 393.08L833.8 392.77L833.5 393.08Z" fill="#FFB0B1"/>
<path opacity="0.1" d="M950.361 285.37C942.681 290.62 936.241 295.05 934.981 295.97C931.541 298.52 924.981 313.49 920.751 321.13C917.381 327.28 906.431 328.86 902.301 329.25L902.831 324.68C912.221 320.48 919.411 307.1 919.411 307.1L937.971 274.56L944.361 280.37C944.361 280.37 946.761 282.37 950.361 285.37Z" fill="black"/>
<path d="M950.361 284.77C942.681 290.02 936.241 294.45 934.981 295.38C931.541 297.92 924.981 312.89 920.751 320.53C917.381 326.68 906.431 328.26 902.301 328.65L902.831 324.08C912.221 319.88 919.411 306.5 919.411 306.5L937.971 273.96L944.361 279.75C944.361 279.75 946.761 281.73 950.361 284.77Z" fill="#DCE7FF"/>
<path d="M935.58 259.29C935.584 265.293 933.763 271.155 930.36 276.1C926.34 281.946 920.357 286.158 913.498 287.97C906.638 289.783 899.356 289.077 892.973 285.98C886.589 282.883 881.528 277.6 878.706 271.09C875.884 264.58 875.49 257.275 877.594 250.499C879.698 243.723 884.161 237.926 890.174 234.159C896.187 230.393 903.351 228.906 910.365 229.97C917.38 231.033 923.782 234.576 928.408 239.956C933.034 245.335 935.579 252.195 935.58 259.29V259.29Z" fill="#FFB0B1"/>
<path opacity="0.1" d="M987.34 359.04C983.279 356.542 979.972 352.989 977.77 348.76C976.1 345.46 974.99 341.65 972.14 339.31C969.57 337.21 966.14 336.7 962.94 335.76C952.42 332.65 943.6 323.05 943.27 312.09C943.11 306.93 944.72 301.78 943.99 296.67C943.575 293.778 942.425 291.04 940.65 288.72C939.769 287.61 938.803 286.57 937.76 285.61C936.36 284.29 934.89 283.01 933.61 281.61C932.804 280.743 932.099 279.787 931.51 278.76C931.035 277.919 930.649 277.031 930.36 276.11C928.36 269.99 930.18 262.73 927.98 256.54L927.86 256.2C927.03 254 925.34 251.8 922.99 251.63C920.64 251.46 918.63 253.41 916.39 254.28C911.7 256.1 906.64 253 902.73 249.84C898.82 246.68 894.41 243.07 889.44 243.77C886.15 244.24 883.55 246.48 880.52 247.64C879.836 247.905 879.13 248.109 878.41 248.25C880.974 241.855 885.686 236.553 891.734 233.254C897.783 229.955 904.792 228.866 911.557 230.174C918.321 231.481 924.42 235.104 928.804 240.419C933.188 245.734 935.584 252.41 935.58 259.3C935.583 261.38 935.366 263.455 934.93 265.49C934.98 265.63 935.03 265.76 935.09 265.9C936.25 268.9 937.56 271.98 938.71 274.64L944.36 279.76C944.36 279.76 946.76 281.76 950.36 284.76C958.19 291.36 971.72 302.98 978.7 310.09C984.84 316.37 986.76 340.71 987.34 359.04Z" fill="black"/>
<path d="M880.171 229.37C881.601 226.46 882.311 223.2 884.021 220.44C886.531 216.44 890.911 213.88 895.411 212.33C907.161 208.28 931.991 202.4 939.411 212.33C940.871 214.33 942.081 216.55 944.101 217.93C945.641 218.98 947.501 219.43 949.191 220.22C953.921 222.44 956.941 227.28 958.551 232.22C960.161 237.16 960.641 242.46 961.821 247.55C963.331 254.08 965.981 260.27 968.621 266.42C971.731 273.68 975.031 281.21 981.031 286.34C989.221 293.34 991.031 303.25 998.631 310.93C1007.63 320.05 1007.34 335.1 1002.7 347.05C1002.09 348.62 1001.4 350.26 1001.64 351.93C1001.88 353.6 1003.12 355.12 1004.29 356.45L1009.21 362C997.571 364.81 984.401 358.73 978.981 348.06C977.311 344.76 976.201 340.96 973.341 338.61C970.781 336.51 967.341 336.01 964.151 335.07C953.631 331.95 944.811 322.34 944.481 311.38C944.321 306.23 945.931 301.08 945.201 295.98C944.794 293.069 943.64 290.312 941.851 287.98C939.101 284.39 934.951 281.98 932.711 277.98C928.921 271.29 931.801 262.6 929.071 255.42C928.231 253.22 926.551 251.02 924.201 250.85C921.851 250.68 919.841 252.63 917.591 253.5C912.911 255.32 907.851 252.23 903.941 249.06C900.031 245.89 895.621 242.29 890.641 243C887.351 243.46 884.761 245.7 881.731 246.87C879.491 247.73 874.951 248.5 872.991 246.61C868.851 242.8 878.441 232.93 880.171 229.37Z" fill="#591D4B"/>
<path opacity="0.1" d="M981.759 344.76C980.079 341.46 978.979 337.66 976.119 335.32C973.559 333.22 970.119 332.71 966.919 331.77C956.409 328.66 947.589 319.05 947.249 308.09C947.089 302.94 948.699 297.78 947.979 292.68C947.561 289.787 946.407 287.05 944.629 284.73C941.869 281.14 937.719 278.73 935.489 274.73C931.699 268.05 934.579 259.36 931.839 252.17C931.009 249.98 929.319 247.78 926.979 247.6C924.639 247.42 922.609 249.39 920.369 250.26C915.689 252.08 910.619 248.98 906.719 245.82C902.819 242.66 898.389 239.05 893.419 239.75C890.129 240.22 887.529 242.46 884.509 243.62C882.269 244.48 877.719 245.26 875.759 243.37C871.639 239.37 881.229 229.52 882.949 225.98C884.379 223.06 885.089 219.81 886.809 217.05C886.899 216.9 887 216.75 887.1 216.6C885.813 217.665 884.703 218.928 883.809 220.34C882.099 223.1 881.389 226.34 879.959 229.27C878.229 232.81 868.639 242.69 872.769 246.66C874.769 248.56 879.269 247.78 881.509 246.92C884.509 245.75 887.129 243.51 890.419 243.05C895.419 242.34 899.819 245.95 903.719 249.11C907.619 252.27 912.719 255.37 917.379 253.55C919.619 252.68 921.579 250.72 923.979 250.9C926.379 251.08 927.979 253.27 928.849 255.47C931.579 262.65 928.699 271.34 932.489 278.03C934.729 281.96 938.879 284.42 941.629 288.03C943.419 290.362 944.573 293.118 944.979 296.03C945.709 301.13 944.099 306.28 944.259 311.43C944.589 322.43 953.409 332 963.929 335.12C967.099 336.06 970.559 336.56 973.119 338.66C975.989 341.01 977.119 344.81 978.759 348.11C984.179 358.78 997.349 364.86 1008.99 362.05L1006.67 359.43C996.58 359.58 986.369 353.84 981.759 344.76Z" fill="black"/>
<path opacity="0.1" d="M912.819 299.12C911.509 301.12 907.759 311.36 904.629 320.3C901.699 319.16 899.039 311.89 899.039 311.89L914.659 289.67C916.259 291.87 915.209 295.52 912.819 299.12Z" fill="black"/>
<path d="M913.421 298.52C912.111 300.52 908.361 310.76 905.231 319.7C902.301 318.57 899.641 311.29 899.641 311.29L915.261 289.08C916.861 291.27 915.811 294.93 913.421 298.52Z" fill="#DCE7FF"/>
<path d="M822.6 400.68L813.94 373.37C813.838 373.051 813.799 372.714 813.827 372.379C813.855 372.044 813.949 371.719 814.103 371.42C814.258 371.122 814.469 370.857 814.726 370.641C814.983 370.425 815.28 370.261 815.6 370.16V370.16C816.245 369.959 816.943 370.021 817.542 370.332C818.141 370.642 818.593 371.178 818.8 371.82L827.46 399.1L826.6 404.81L822.6 400.68Z" fill="#BE8B87"/>
<path opacity="0.1" d="M814.76 370.97C815.406 370.766 816.107 370.826 816.708 371.137C817.31 371.448 817.764 371.985 817.971 372.63L826.63 399.91L825.98 404.19L826.61 404.85L827.471 399.14L818.76 371.86C818.554 371.218 818.102 370.682 817.502 370.372C816.903 370.061 816.205 369.999 815.56 370.2V370.2C815.018 370.376 814.55 370.728 814.23 371.2C814.4 371.109 814.578 371.032 814.76 370.97V370.97Z" fill="white"/>
<path d="M822.6 400.68L827.46 399.14L826.75 403.82L826.6 404.85L825.18 403.37L822.6 400.68Z" fill="#EFC8C4"/>
<path d="M825.18 403.37C825.264 403.263 825.37 403.175 825.49 403.11C825.56 403.066 825.642 403.042 825.725 403.042C825.808 403.042 825.889 403.066 825.96 403.11C826.028 403.192 826.085 403.283 826.13 403.38C826.196 403.49 826.286 403.584 826.393 403.655C826.5 403.726 826.622 403.772 826.75 403.79L826.6 404.79L825.18 403.37Z" fill="#727A9C"/>
<path d="M813.891 383.07C813.891 383.07 831.261 382.97 827.171 390.36C823.081 397.75 816.691 398.64 816.691 398.64L813.891 383.07Z" fill="#FFB0B1"/>
<path d="M705.86 51.4199H705.11C675.27 51.4199 648.88 67.2099 633.7 90.5099C618.52 67.2099 592.13 51.4199 562.29 51.4199H561.54C539.146 51.6333 517.74 60.6759 501.976 76.5827C486.212 92.4894 477.362 113.975 477.35 136.37C477.35 164.18 489.53 203.64 513.28 236.11C558.53 297.98 633.7 352.11 633.7 352.11C633.7 352.11 708.87 297.99 754.11 236.11C777.87 203.64 790.04 164.18 790.04 136.37C790.027 113.977 781.179 92.4926 765.417 76.5862C749.654 60.6797 728.252 51.6359 705.86 51.4199V51.4199ZM695.13 240.87C691.731 240.857 688.416 239.817 685.62 237.886C682.823 235.955 680.676 233.223 679.46 230.05H661.62C660.445 230.043 659.302 229.669 658.35 228.98C657.398 228.292 656.684 227.323 656.31 226.21L650.83 209.7L633.49 270.29C633.152 271.456 632.445 272.482 631.475 273.212C630.505 273.942 629.324 274.338 628.11 274.34H627.76C626.493 274.279 625.285 273.785 624.339 272.94C623.392 272.095 622.764 270.952 622.56 269.7L604.69 162.22L591.63 225.82C591.33 227.028 590.635 228.101 589.654 228.868C588.673 229.635 587.464 230.051 586.22 230.05H561.09C560.336 230.082 559.584 229.961 558.879 229.695C558.174 229.428 557.529 229.022 556.985 228.5C556.441 227.979 556.007 227.352 555.712 226.659C555.416 225.965 555.263 225.219 555.263 224.465C555.263 223.711 555.416 222.965 555.712 222.271C556.007 221.578 556.441 220.951 556.985 220.429C557.529 219.908 558.174 219.501 558.879 219.235C559.584 218.969 560.336 218.848 561.09 218.88H581.82L600.32 133.37C600.623 132.106 601.357 130.986 602.394 130.203C603.432 129.419 604.71 129.021 606.009 129.075C607.308 129.129 608.548 129.633 609.516 130.501C610.485 131.368 611.122 132.545 611.32 133.83L629.57 243.47L645.11 189.26C645.433 188.118 646.117 187.112 647.06 186.391C648.002 185.67 649.153 185.273 650.34 185.26H650.45C651.625 185.26 652.77 185.632 653.722 186.321C654.673 187.011 655.383 187.983 655.75 189.1L665.66 218.91H679.24C680.205 215.977 681.962 213.367 684.317 211.369C686.672 209.371 689.533 208.063 692.585 207.589C695.637 207.114 698.76 207.492 701.61 208.681C704.46 209.87 706.927 211.823 708.737 214.324C710.548 216.826 711.632 219.78 711.87 222.859C712.107 225.938 711.49 229.023 710.085 231.773C708.681 234.523 706.544 236.832 703.91 238.444C701.276 240.057 698.248 240.91 695.16 240.91L695.13 240.87Z" fill="#337ACC"/>
</g>
<defs>
<linearGradient id="paint0_linear_24_6616" x1="356.331" y1="774.87" x2="356.331" y2="159.53" gradientUnits="userSpaceOnUse">
<stop stop-color="#808080" stop-opacity="0.25"/>
<stop offset="0.54" stop-color="#808080" stop-opacity="0.12"/>
<stop offset="1" stop-color="#808080" stop-opacity="0.1"/>
</linearGradient>
<linearGradient id="paint1_linear_24_6616" x1="893.43" y1="767.09" x2="893.43" y2="205.09" gradientUnits="userSpaceOnUse">
<stop stop-color="#808080" stop-opacity="0.25"/>
<stop offset="0.54" stop-color="#808080" stop-opacity="0.12"/>
<stop offset="1" stop-color="#808080" stop-opacity="0.1"/>
</linearGradient>
<clipPath id="clip0_24_6616">
<rect width="1105.04" height="782.74" fill="white"/>
</clipPath>
</defs>
</svg>
